<svg xmlns="http://www.w3.org/2000/svg" viewBox="0 0 1200 1640" font-family="-apple-system, BlinkMacSystemFont, 'Segoe UI', sans-serif" font-size="13" fill="#e8e8f0">
  <defs>
    <marker id="arr" viewBox="0 0 10 10" refX="9" refY="5" markerWidth="8" markerHeight="8" orient="auto-start-reverse">
      <path d="M0,0 L10,5 L0,10 z" fill="#8aa0ff"/>
    </marker>
    <marker id="arrSoft" viewBox="0 0 10 10" refX="9" refY="5" markerWidth="7" markerHeight="7" orient="auto-start-reverse">
      <path d="M0,0 L10,5 L0,10 z" fill="#5a6a90"/>
    </marker>
    <style>
      .panel { fill: rgba(20,20,40,0.78); stroke: rgba(120,140,255,0.3); stroke-width: 1; }
      .panel-title { font-size: 16px; font-weight: 600; letter-spacing: 0.08em; text-transform: uppercase; fill: #c0c8ff; }
      .subtle  { fill: #8a8ac0; }
      .mono    { font-family: ui-monospace, 'SF Mono', Menlo, monospace; }
      .code    { font-family: ui-monospace, 'SF Mono', Menlo, monospace; fill: #b9c1ff; }
      .kw      { font-family: ui-monospace, 'SF Mono', Menlo, monospace; fill: #f5d34a; font-weight: 600; }
      .col-outline { fill: none; stroke: #444466; stroke-width: 1.2; }
      .slot-empty  { fill: rgba(120,140,255,0.06); stroke: rgba(120,140,255,0.18); stroke-width: 0.5; }
    </style>
  </defs>

  <rect width="1200" height="1640" fill="#0a0a14"/>

  <!-- Header -->
  <text x="600" y="46" text-anchor="middle" font-size="26" font-weight="700" fill="#fff">Column Display — Cheatsheet</text>
  <text x="600" y="70" text-anchor="middle" font-size="13" class="subtle">src/display.js · vocabulary reference</text>

  <!-- =================================================================== -->
  <!-- SECTION 1: Anatomy of one column                                    -->
  <!-- =================================================================== -->
  <g transform="translate(40, 100)">
    <rect class="panel" width="540" height="540" rx="12"/>
    <text x="20" y="34" class="panel-title">1 · Anatomy of one Column</text>

    <!-- Drawn column with 5x20 slot grid -->
    <g transform="translate(60, 70)">
      <!-- outline -->
      <rect class="col-outline" x="0" y="0" width="100" height="400" rx="2"/>
      <!-- 5x20 = 100 slots -->
      <g>
        <!-- Generate slot rects programmatically by repeating: 5 cols × 20 rows -->
        <!-- Row by row, top-to-bottom in SVG (slot 0 is at bottom in game, here we mirror for clarity) -->
      </g>
      <!-- We'll draw rows manually: 20 rows, 5 cols, cell ~ 20w × 20h -->
      <g fill="rgba(120,140,255,0.06)" stroke="rgba(120,140,255,0.18)" stroke-width="0.5">
        <!-- row 0 (bottom in game = bottom here, y=380) up to row 19 (top, y=0) -->
        <!-- 20 rows. cell height = 20, gap 0 -->
      </g>
      <!-- We need each cell. Use a single <g> with translated repeats. Simpler: list all 100. -->
      <g>
        <!-- Bottom-up: row 0 at y=380, row 19 at y=0 -->
        <!-- Bottom 9 rows filled (representing cycleSpawnCount=45) -->
        <!-- We'll mark 45 slots filled = 9 rows × 5 cols -->
      </g>

      <!-- Generate the 100 cells. -->
      <!-- We use scripted-looking pattern: row r in [0,19], col c in [0,4] -->
      <!-- y = (19 - r) * 20, x = c * 20. Filled if (r*5 + c) < 45. -->
      <!-- I'll emit them inline. -->
<!-- BEGIN SLOTS -->
<!-- row 0 -->
<rect class="slot-empty" x="0"  y="380" width="20" height="20" rx="2"/><rect class="slot-empty" x="20" y="380" width="20" height="20" rx="2"/><rect class="slot-empty" x="40" y="380" width="20" height="20" rx="2"/><rect class="slot-empty" x="60" y="380" width="20" height="20" rx="2"/><rect class="slot-empty" x="80" y="380" width="20" height="20" rx="2"/>
<!-- row 1 -->
<rect class="slot-empty" x="0"  y="360" width="20" height="20" rx="2"/><rect class="slot-empty" x="20" y="360" width="20" height="20" rx="2"/><rect class="slot-empty" x="40" y="360" width="20" height="20" rx="2"/><rect class="slot-empty" x="60" y="360" width="20" height="20" rx="2"/><rect class="slot-empty" x="80" y="360" width="20" height="20" rx="2"/>
<!-- row 2 -->
<rect class="slot-empty" x="0"  y="340" width="20" height="20" rx="2"/><rect class="slot-empty" x="20" y="340" width="20" height="20" rx="2"/><rect class="slot-empty" x="40" y="340" width="20" height="20" rx="2"/><rect class="slot-empty" x="60" y="340" width="20" height="20" rx="2"/><rect class="slot-empty" x="80" y="340" width="20" height="20" rx="2"/>
<!-- row 3 -->
<rect class="slot-empty" x="0"  y="320" width="20" height="20" rx="2"/><rect class="slot-empty" x="20" y="320" width="20" height="20" rx="2"/><rect class="slot-empty" x="40" y="320" width="20" height="20" rx="2"/><rect class="slot-empty" x="60" y="320" width="20" height="20" rx="2"/><rect class="slot-empty" x="80" y="320" width="20" height="20" rx="2"/>
<!-- row 4 -->
<rect class="slot-empty" x="0"  y="300" width="20" height="20" rx="2"/><rect class="slot-empty" x="20" y="300" width="20" height="20" rx="2"/><rect class="slot-empty" x="40" y="300" width="20" height="20" rx="2"/><rect class="slot-empty" x="60" y="300" width="20" height="20" rx="2"/><rect class="slot-empty" x="80" y="300" width="20" height="20" rx="2"/>
<!-- row 5 -->
<rect class="slot-empty" x="0"  y="280" width="20" height="20" rx="2"/><rect class="slot-empty" x="20" y="280" width="20" height="20" rx="2"/><rect class="slot-empty" x="40" y="280" width="20" height="20" rx="2"/><rect class="slot-empty" x="60" y="280" width="20" height="20" rx="2"/><rect class="slot-empty" x="80" y="280" width="20" height="20" rx="2"/>
<!-- row 6 -->
<rect class="slot-empty" x="0"  y="260" width="20" height="20" rx="2"/><rect class="slot-empty" x="20" y="260" width="20" height="20" rx="2"/><rect class="slot-empty" x="40" y="260" width="20" height="20" rx="2"/><rect class="slot-empty" x="60" y="260" width="20" height="20" rx="2"/><rect class="slot-empty" x="80" y="260" width="20" height="20" rx="2"/>
<!-- row 7 -->
<rect class="slot-empty" x="0"  y="240" width="20" height="20" rx="2"/><rect class="slot-empty" x="20" y="240" width="20" height="20" rx="2"/><rect class="slot-empty" x="40" y="240" width="20" height="20" rx="2"/><rect class="slot-empty" x="60" y="240" width="20" height="20" rx="2"/><rect class="slot-empty" x="80" y="240" width="20" height="20" rx="2"/>
<!-- row 8 -->
<rect class="slot-empty" x="0"  y="220" width="20" height="20" rx="2"/><rect class="slot-empty" x="20" y="220" width="20" height="20" rx="2"/><rect class="slot-empty" x="40" y="220" width="20" height="20" rx="2"/><rect class="slot-empty" x="60" y="220" width="20" height="20" rx="2"/><rect class="slot-empty" x="80" y="220" width="20" height="20" rx="2"/>
<!-- row 9 (top half empty rows above) -->
<rect class="slot-empty" x="0"  y="200" width="20" height="20" rx="2"/><rect class="slot-empty" x="20" y="200" width="20" height="20" rx="2"/><rect class="slot-empty" x="40" y="200" width="20" height="20" rx="2"/><rect class="slot-empty" x="60" y="200" width="20" height="20" rx="2"/><rect class="slot-empty" x="80" y="200" width="20" height="20" rx="2"/>
<!-- row 10..18 (empty) -->
<rect class="slot-empty" x="0"  y="180" width="20" height="20" rx="2"/><rect class="slot-empty" x="20" y="180" width="20" height="20" rx="2"/><rect class="slot-empty" x="40" y="180" width="20" height="20" rx="2"/><rect class="slot-empty" x="60" y="180" width="20" height="20" rx="2"/><rect class="slot-empty" x="80" y="180" width="20" height="20" rx="2"/>
<rect class="slot-empty" x="0"  y="160" width="20" height="20" rx="2"/><rect class="slot-empty" x="20" y="160" width="20" height="20" rx="2"/><rect class="slot-empty" x="40" y="160" width="20" height="20" rx="2"/><rect class="slot-empty" x="60" y="160" width="20" height="20" rx="2"/><rect class="slot-empty" x="80" y="160" width="20" height="20" rx="2"/>
<rect class="slot-empty" x="0"  y="140" width="20" height="20" rx="2"/><rect class="slot-empty" x="20" y="140" width="20" height="20" rx="2"/><rect class="slot-empty" x="40" y="140" width="20" height="20" rx="2"/><rect class="slot-empty" x="60" y="140" width="20" height="20" rx="2"/><rect class="slot-empty" x="80" y="140" width="20" height="20" rx="2"/>
<rect class="slot-empty" x="0"  y="120" width="20" height="20" rx="2"/><rect class="slot-empty" x="20" y="120" width="20" height="20" rx="2"/><rect class="slot-empty" x="40" y="120" width="20" height="20" rx="2"/><rect class="slot-empty" x="60" y="120" width="20" height="20" rx="2"/><rect class="slot-empty" x="80" y="120" width="20" height="20" rx="2"/>
<rect class="slot-empty" x="0"  y="100" width="20" height="20" rx="2"/><rect class="slot-empty" x="20" y="100" width="20" height="20" rx="2"/><rect class="slot-empty" x="40" y="100" width="20" height="20" rx="2"/><rect class="slot-empty" x="60" y="100" width="20" height="20" rx="2"/><rect class="slot-empty" x="80" y="100" width="20" height="20" rx="2"/>
<rect class="slot-empty" x="0"  y="80"  width="20" height="20" rx="2"/><rect class="slot-empty" x="20" y="80"  width="20" height="20" rx="2"/><rect class="slot-empty" x="40" y="80"  width="20" height="20" rx="2"/><rect class="slot-empty" x="60" y="80"  width="20" height="20" rx="2"/><rect class="slot-empty" x="80" y="80"  width="20" height="20" rx="2"/>
<rect class="slot-empty" x="0"  y="60"  width="20" height="20" rx="2"/><rect class="slot-empty" x="20" y="60"  width="20" height="20" rx="2"/><rect class="slot-empty" x="40" y="60"  width="20" height="20" rx="2"/><rect class="slot-empty" x="60" y="60"  width="20" height="20" rx="2"/><rect class="slot-empty" x="80" y="60"  width="20" height="20" rx="2"/>
<rect class="slot-empty" x="0"  y="40"  width="20" height="20" rx="2"/><rect class="slot-empty" x="20" y="40"  width="20" height="20" rx="2"/><rect class="slot-empty" x="40" y="40"  width="20" height="20" rx="2"/><rect class="slot-empty" x="60" y="40"  width="20" height="20" rx="2"/><rect class="slot-empty" x="80" y="40"  width="20" height="20" rx="2"/>
<rect class="slot-empty" x="0"  y="20"  width="20" height="20" rx="2"/><rect class="slot-empty" x="20" y="20"  width="20" height="20" rx="2"/><rect class="slot-empty" x="40" y="20"  width="20" height="20" rx="2"/><rect class="slot-empty" x="60" y="20"  width="20" height="20" rx="2"/><rect class="slot-empty" x="80" y="20"  width="20" height="20" rx="2"/>
<rect class="slot-empty" x="0"  y="0"   width="20" height="20" rx="2"/><rect class="slot-empty" x="20" y="0"   width="20" height="20" rx="2"/><rect class="slot-empty" x="40" y="0"   width="20" height="20" rx="2"/><rect class="slot-empty" x="60" y="0"   width="20" height="20" rx="2"/><rect class="slot-empty" x="80" y="0"   width="20" height="20" rx="2"/>
<!-- END SLOTS -->

      <!-- Fill bottom 9 rows (45 particles, state=settled) -->
      <g>
        <g transform="translate(0, 380)"><rect x="2" y="2" width="16" height="16" rx="2" fill="#4ea8ff"/><rect x="22" y="2" width="16" height="16" rx="2" fill="#4ea8ff"/><rect x="42" y="2" width="16" height="16" rx="2" fill="#4ea8ff"/><rect x="62" y="2" width="16" height="16" rx="2" fill="#4ea8ff"/><rect x="82" y="2" width="16" height="16" rx="2" fill="#4ea8ff"/></g>
        <g transform="translate(0, 360)"><rect x="2" y="2" width="16" height="16" rx="2" fill="#4ea8ff"/><rect x="22" y="2" width="16" height="16" rx="2" fill="#4ea8ff"/><rect x="42" y="2" width="16" height="16" rx="2" fill="#4ea8ff"/><rect x="62" y="2" width="16" height="16" rx="2" fill="#4ea8ff"/><rect x="82" y="2" width="16" height="16" rx="2" fill="#4ea8ff"/></g>
        <g transform="translate(0, 340)"><rect x="2" y="2" width="16" height="16" rx="2" fill="#4ea8ff"/><rect x="22" y="2" width="16" height="16" rx="2" fill="#4ea8ff"/><rect x="42" y="2" width="16" height="16" rx="2" fill="#4ea8ff"/><rect x="62" y="2" width="16" height="16" rx="2" fill="#4ea8ff"/><rect x="82" y="2" width="16" height="16" rx="2" fill="#4ea8ff"/></g>
        <g transform="translate(0, 320)"><rect x="2" y="2" width="16" height="16" rx="2" fill="#4ea8ff"/><rect x="22" y="2" width="16" height="16" rx="2" fill="#4ea8ff"/><rect x="42" y="2" width="16" height="16" rx="2" fill="#4ea8ff"/><rect x="62" y="2" width="16" height="16" rx="2" fill="#4ea8ff"/><rect x="82" y="2" width="16" height="16" rx="2" fill="#4ea8ff"/></g>
        <g transform="translate(0, 300)"><rect x="2" y="2" width="16" height="16" rx="2" fill="#4ea8ff"/><rect x="22" y="2" width="16" height="16" rx="2" fill="#4ea8ff"/><rect x="42" y="2" width="16" height="16" rx="2" fill="#4ea8ff"/><rect x="62" y="2" width="16" height="16" rx="2" fill="#4ea8ff"/><rect x="82" y="2" width="16" height="16" rx="2" fill="#4ea8ff"/></g>
        <g transform="translate(0, 280)"><rect x="2" y="2" width="16" height="16" rx="2" fill="#4ea8ff"/><rect x="22" y="2" width="16" height="16" rx="2" fill="#4ea8ff"/><rect x="42" y="2" width="16" height="16" rx="2" fill="#4ea8ff"/><rect x="62" y="2" width="16" height="16" rx="2" fill="#4ea8ff"/><rect x="82" y="2" width="16" height="16" rx="2" fill="#4ea8ff"/></g>
        <g transform="translate(0, 260)"><rect x="2" y="2" width="16" height="16" rx="2" fill="#4ea8ff"/><rect x="22" y="2" width="16" height="16" rx="2" fill="#4ea8ff"/><rect x="42" y="2" width="16" height="16" rx="2" fill="#4ea8ff"/><rect x="62" y="2" width="16" height="16" rx="2" fill="#4ea8ff"/><rect x="82" y="2" width="16" height="16" rx="2" fill="#4ea8ff"/></g>
        <g transform="translate(0, 240)"><rect x="2" y="2" width="16" height="16" rx="2" fill="#4ea8ff"/><rect x="22" y="2" width="16" height="16" rx="2" fill="#4ea8ff"/><rect x="42" y="2" width="16" height="16" rx="2" fill="#4ea8ff"/><rect x="62" y="2" width="16" height="16" rx="2" fill="#4ea8ff"/><rect x="82" y="2" width="16" height="16" rx="2" fill="#4ea8ff"/></g>
        <g transform="translate(0, 220)"><rect x="2" y="2" width="16" height="16" rx="2" fill="#4ea8ff"/><rect x="22" y="2" width="16" height="16" rx="2" fill="#4ea8ff"/><rect x="42" y="2" width="16" height="16" rx="2" fill="#4ea8ff"/><rect x="62" y="2" width="16" height="16" rx="2" fill="#4ea8ff"/><rect x="82" y="2" width="16" height="16" rx="2" fill="#4ea8ff"/></g>
      </g>

      <!-- Labels and arrows -->
      <!-- slot 0 -->
      <line x1="-30" y1="390" x2="-1" y2="390" stroke="#8aa0ff" stroke-width="1" marker-end="url(#arr)"/>
      <text x="-35" y="394" text-anchor="end" class="mono">slot 0</text>
      <!-- slot 99 -->
      <line x1="130" y1="10" x2="101" y2="10" stroke="#8aa0ff" stroke-width="1" marker-end="url(#arr)"/>
      <text x="135" y="14" class="mono">slot 99</text>
      <!-- fill marker at row 8 -->
      <line x1="130" y1="230" x2="101" y2="230" stroke="#f5d34a" stroke-width="1" marker-end="url(#arr)"/>
      <text x="135" y="222" class="mono" fill="#f5d34a">cycleSpawn-</text>
      <text x="135" y="238" class="mono" fill="#f5d34a">Count = 45</text>

      <!-- GRID_W under -->
      <line x1="0" y1="420" x2="100" y2="420" stroke="#8a8ac0" stroke-width="0.5"/>
      <line x1="0" y1="416" x2="0" y2="424" stroke="#8a8ac0" stroke-width="0.5"/>
      <line x1="100" y1="416" x2="100" y2="424" stroke="#8a8ac0" stroke-width="0.5"/>
      <text x="50" y="436" text-anchor="middle" class="mono subtle">GRID_W = 5</text>

      <!-- GRID_H on right -->
      <line x1="-15" y1="0" x2="-15" y2="400" stroke="#8a8ac0" stroke-width="0.5"/>
      <line x1="-19" y1="0" x2="-11" y2="0" stroke="#8a8ac0" stroke-width="0.5"/>
      <line x1="-19" y1="400" x2="-11" y2="400" stroke="#8a8ac0" stroke-width="0.5"/>
      <text x="-25" y="204" text-anchor="middle" class="mono subtle" transform="rotate(-90 -25 204)">GRID_H = 20</text>
    </g>

    <!-- Side text -->
    <g transform="translate(280, 90)">
      <text x="0" y="0" font-weight="600" fill="#c0c8ff">Column</text>
      <text x="0" y="20" class="subtle">A vertical bar showing one base-100</text>
      <text x="0" y="36" class="subtle">magnitude (<tspan class="mono" fill="#b9c1ff">m100</tspan>) of the total amount.</text>

      <text x="0" y="74" font-weight="600" fill="#c0c8ff">Slot</text>
      <text x="0" y="94" class="subtle">A fixed cell. There are exactly</text>
      <text x="0" y="110" class="subtle"><tspan class="mono" fill="#b9c1ff">GRID_W × GRID_H = 100</tspan> per column —</text>
      <text x="0" y="126" class="subtle">matches base-100 so rollover lines up.</text>

      <text x="0" y="164" font-weight="600" fill="#c0c8ff">Particle</text>
      <text x="0" y="184" class="subtle">A pooled 3D mesh (<tspan class="mono" fill="#b9c1ff">POOL_SIZE = 320</tspan></text>
      <text x="0" y="200" class="subtle">per column). Shape and colour come</text>
      <text x="0" y="216" class="subtle">from <tspan class="mono" fill="#b9c1ff">period</tspan> + <tspan class="mono" fill="#b9c1ff">rank</tspan> via PERIODS table.</text>

      <text x="0" y="254" font-weight="600" fill="#c0c8ff">slotIndex layout</text>
      <text x="0" y="274" class="mono subtle">col = slotIndex % GRID_W</text>
      <text x="0" y="290" class="mono subtle">row = floor(slotIndex / GRID_W)</text>
      <text x="0" y="306" class="subtle">Slot 0 is bottom-left, slot 99 top-right.</text>

      <text x="0" y="344" font-weight="600" fill="#c0c8ff">Counters</text>
      <text x="0" y="364" class="mono"><tspan fill="#b9c1ff">processed</tspan> <tspan class="subtle">= floor(amount / 100^m100)</tspan></text>
      <text x="0" y="380" class="mono"><tspan fill="#b9c1ff">cycleSpawnCount</tspan> <tspan class="subtle">= processed % 100</tspan></text>
      <text x="0" y="396" class="mono"><tspan fill="#b9c1ff">aliveCount</tspan> <tspan class="subtle">= live (non-idle) particles</tspan></text>

      <text x="0" y="434" class="subtle" font-size="11" font-style="italic">Visual: 45 settled = cycleSpawnCount=45,</text>
      <text x="0" y="450" class="subtle" font-size="11" font-style="italic">processed could be 45, 145, 245, …</text>
    </g>
  </g>

  <!-- =================================================================== -->
  <!-- SECTION 2: How amount maps to columns                               -->
  <!-- =================================================================== -->
  <g transform="translate(620, 100)">
    <rect class="panel" width="540" height="540" rx="12"/>
    <text x="20" y="34" class="panel-title">2 · amount → columns</text>

    <text x="20" y="70" class="mono" fill="#b9c1ff">amount = 12,345,678</text>
    <text x="20" y="90" class="subtle" font-size="11">Each column shows two decimal digits of the number.</text>

    <!-- 4 mini columns side by side. m=3, 2, 1, 0 -->
    <g transform="translate(40, 110)">
      <!-- Column m=3, v=12, period 'm' (million) -->
      <g transform="translate(0, 0)">
        <rect class="col-outline" x="0" y="0" width="60" height="240" rx="2"/>
        <text x="30" y="-8" text-anchor="middle" font-weight="600" fill="#4cd07d">m100 = 3</text>
        <text x="30" y="260" text-anchor="middle" class="mono" fill="#4cd07d">value = 12</text>
        <text x="30" y="278" text-anchor="middle" class="subtle" font-size="11">period m · rank 1</text>
        <!-- 12 filled cells (bottom-up, 5 wide). Cells smaller: 60/5 = 12 wide. 240/20=12 tall. -->
        <!-- 12 items: 2 full rows + 2 in row 2 -->
        <g fill="#4cd07d">
          <!-- row 0 (bottom, y=228) -->
          <rect x="2" y="230" width="8" height="8" rx="1"/><rect x="14" y="230" width="8" height="8" rx="1"/><rect x="26" y="230" width="8" height="8" rx="1"/><rect x="38" y="230" width="8" height="8" rx="1"/><rect x="50" y="230" width="8" height="8" rx="1"/>
          <!-- row 1 (y=218) -->
          <rect x="2" y="218" width="8" height="8" rx="1"/><rect x="14" y="218" width="8" height="8" rx="1"/><rect x="26" y="218" width="8" height="8" rx="1"/><rect x="38" y="218" width="8" height="8" rx="1"/><rect x="50" y="218" width="8" height="8" rx="1"/>
          <!-- row 2 (y=206), 2 items -->
          <rect x="2" y="206" width="8" height="8" rx="1"/><rect x="14" y="206" width="8" height="8" rx="1"/>
        </g>
      </g>

      <!-- Column m=2, v=34, period 'k' (thousand) rank 2 -->
      <g transform="translate(110, 0)">
        <rect class="col-outline" x="0" y="0" width="60" height="240" rx="2"/>
        <text x="30" y="-8" text-anchor="middle" font-weight="600" fill="#4ea8ff">m100 = 2</text>
        <text x="30" y="260" text-anchor="middle" class="mono" fill="#4ea8ff">value = 34</text>
        <text x="30" y="278" text-anchor="middle" class="subtle" font-size="11">period k · rank 2</text>
        <g fill="#4ea8ff">
          <!-- 34 items: 6 full rows (30) + 4 in row 6 -->
          <!-- row 0 -->
          <rect x="2" y="230" width="8" height="8" rx="1"/><rect x="14" y="230" width="8" height="8" rx="1"/><rect x="26" y="230" width="8" height="8" rx="1"/><rect x="38" y="230" width="8" height="8" rx="1"/><rect x="50" y="230" width="8" height="8" rx="1"/>
          <rect x="2" y="218" width="8" height="8" rx="1"/><rect x="14" y="218" width="8" height="8" rx="1"/><rect x="26" y="218" width="8" height="8" rx="1"/><rect x="38" y="218" width="8" height="8" rx="1"/><rect x="50" y="218" width="8" height="8" rx="1"/>
          <rect x="2" y="206" width="8" height="8" rx="1"/><rect x="14" y="206" width="8" height="8" rx="1"/><rect x="26" y="206" width="8" height="8" rx="1"/><rect x="38" y="206" width="8" height="8" rx="1"/><rect x="50" y="206" width="8" height="8" rx="1"/>
          <rect x="2" y="194" width="8" height="8" rx="1"/><rect x="14" y="194" width="8" height="8" rx="1"/><rect x="26" y="194" width="8" height="8" rx="1"/><rect x="38" y="194" width="8" height="8" rx="1"/><rect x="50" y="194" width="8" height="8" rx="1"/>
          <rect x="2" y="182" width="8" height="8" rx="1"/><rect x="14" y="182" width="8" height="8" rx="1"/><rect x="26" y="182" width="8" height="8" rx="1"/><rect x="38" y="182" width="8" height="8" rx="1"/><rect x="50" y="182" width="8" height="8" rx="1"/>
          <rect x="2" y="170" width="8" height="8" rx="1"/><rect x="14" y="170" width="8" height="8" rx="1"/><rect x="26" y="170" width="8" height="8" rx="1"/><rect x="38" y="170" width="8" height="8" rx="1"/><rect x="50" y="170" width="8" height="8" rx="1"/>
          <rect x="2" y="158" width="8" height="8" rx="1"/><rect x="14" y="158" width="8" height="8" rx="1"/><rect x="26" y="158" width="8" height="8" rx="1"/><rect x="38" y="158" width="8" height="8" rx="1"/>
        </g>
      </g>

      <!-- Column m=1, v=56, period 'k' rank 0 -->
      <g transform="translate(220, 0)">
        <rect class="col-outline" x="0" y="0" width="60" height="240" rx="2"/>
        <text x="30" y="-8" text-anchor="middle" font-weight="600" fill="#4ea8ff">m100 = 1</text>
        <text x="30" y="260" text-anchor="middle" class="mono" fill="#4ea8ff">value = 56</text>
        <text x="30" y="278" text-anchor="middle" class="subtle" font-size="11">period unit · rank 2</text>
        <g fill="#7bb5f0">
          <!-- 56 items: 11 full rows (55) + 1 -->
          <rect x="2" y="230" width="8" height="8" rx="1"/><rect x="14" y="230" width="8" height="8" rx="1"/><rect x="26" y="230" width="8" height="8" rx="1"/><rect x="38" y="230" width="8" height="8" rx="1"/><rect x="50" y="230" width="8" height="8" rx="1"/>
          <rect x="2" y="218" width="8" height="8" rx="1"/><rect x="14" y="218" width="8" height="8" rx="1"/><rect x="26" y="218" width="8" height="8" rx="1"/><rect x="38" y="218" width="8" height="8" rx="1"/><rect x="50" y="218" width="8" height="8" rx="1"/>
          <rect x="2" y="206" width="8" height="8" rx="1"/><rect x="14" y="206" width="8" height="8" rx="1"/><rect x="26" y="206" width="8" height="8" rx="1"/><rect x="38" y="206" width="8" height="8" rx="1"/><rect x="50" y="206" width="8" height="8" rx="1"/>
          <rect x="2" y="194" width="8" height="8" rx="1"/><rect x="14" y="194" width="8" height="8" rx="1"/><rect x="26" y="194" width="8" height="8" rx="1"/><rect x="38" y="194" width="8" height="8" rx="1"/><rect x="50" y="194" width="8" height="8" rx="1"/>
          <rect x="2" y="182" width="8" height="8" rx="1"/><rect x="14" y="182" width="8" height="8" rx="1"/><rect x="26" y="182" width="8" height="8" rx="1"/><rect x="38" y="182" width="8" height="8" rx="1"/><rect x="50" y="182" width="8" height="8" rx="1"/>
          <rect x="2" y="170" width="8" height="8" rx="1"/><rect x="14" y="170" width="8" height="8" rx="1"/><rect x="26" y="170" width="8" height="8" rx="1"/><rect x="38" y="170" width="8" height="8" rx="1"/><rect x="50" y="170" width="8" height="8" rx="1"/>
          <rect x="2" y="158" width="8" height="8" rx="1"/><rect x="14" y="158" width="8" height="8" rx="1"/><rect x="26" y="158" width="8" height="8" rx="1"/><rect x="38" y="158" width="8" height="8" rx="1"/><rect x="50" y="158" width="8" height="8" rx="1"/>
          <rect x="2" y="146" width="8" height="8" rx="1"/><rect x="14" y="146" width="8" height="8" rx="1"/><rect x="26" y="146" width="8" height="8" rx="1"/><rect x="38" y="146" width="8" height="8" rx="1"/><rect x="50" y="146" width="8" height="8" rx="1"/>
          <rect x="2" y="134" width="8" height="8" rx="1"/><rect x="14" y="134" width="8" height="8" rx="1"/><rect x="26" y="134" width="8" height="8" rx="1"/><rect x="38" y="134" width="8" height="8" rx="1"/><rect x="50" y="134" width="8" height="8" rx="1"/>
          <rect x="2" y="122" width="8" height="8" rx="1"/><rect x="14" y="122" width="8" height="8" rx="1"/><rect x="26" y="122" width="8" height="8" rx="1"/><rect x="38" y="122" width="8" height="8" rx="1"/><rect x="50" y="122" width="8" height="8" rx="1"/>
          <rect x="2" y="110" width="8" height="8" rx="1"/><rect x="14" y="110" width="8" height="8" rx="1"/><rect x="26" y="110" width="8" height="8" rx="1"/><rect x="38" y="110" width="8" height="8" rx="1"/><rect x="50" y="110" width="8" height="8" rx="1"/>
          <rect x="2" y="98" width="8" height="8" rx="1"/>
        </g>
      </g>

      <!-- Column m=0, v=78, period 'unit' rank 0 -->
      <g transform="translate(330, 0)">
        <rect class="col-outline" x="0" y="0" width="60" height="240" rx="2"/>
        <text x="30" y="-8" text-anchor="middle" font-weight="600" fill="#c4cad2">m100 = 0</text>
        <text x="30" y="260" text-anchor="middle" class="mono" fill="#c4cad2">value = 78</text>
        <text x="30" y="278" text-anchor="middle" class="subtle" font-size="11">period unit · rank 1</text>
        <g fill="#c4cad2">
          <!-- 78 items: 15 full rows (75) + 3 in row 15 -->
          <rect x="2" y="230" width="8" height="8" rx="1"/><rect x="14" y="230" width="8" height="8" rx="1"/><rect x="26" y="230" width="8" height="8" rx="1"/><rect x="38" y="230" width="8" height="8" rx="1"/><rect x="50" y="230" width="8" height="8" rx="1"/>
          <rect x="2" y="218" width="8" height="8" rx="1"/><rect x="14" y="218" width="8" height="8" rx="1"/><rect x="26" y="218" width="8" height="8" rx="1"/><rect x="38" y="218" width="8" height="8" rx="1"/><rect x="50" y="218" width="8" height="8" rx="1"/>
          <rect x="2" y="206" width="8" height="8" rx="1"/><rect x="14" y="206" width="8" height="8" rx="1"/><rect x="26" y="206" width="8" height="8" rx="1"/><rect x="38" y="206" width="8" height="8" rx="1"/><rect x="50" y="206" width="8" height="8" rx="1"/>
          <rect x="2" y="194" width="8" height="8" rx="1"/><rect x="14" y="194" width="8" height="8" rx="1"/><rect x="26" y="194" width="8" height="8" rx="1"/><rect x="38" y="194" width="8" height="8" rx="1"/><rect x="50" y="194" width="8" height="8" rx="1"/>
          <rect x="2" y="182" width="8" height="8" rx="1"/><rect x="14" y="182" width="8" height="8" rx="1"/><rect x="26" y="182" width="8" height="8" rx="1"/><rect x="38" y="182" width="8" height="8" rx="1"/><rect x="50" y="182" width="8" height="8" rx="1"/>
          <rect x="2" y="170" width="8" height="8" rx="1"/><rect x="14" y="170" width="8" height="8" rx="1"/><rect x="26" y="170" width="8" height="8" rx="1"/><rect x="38" y="170" width="8" height="8" rx="1"/><rect x="50" y="170" width="8" height="8" rx="1"/>
          <rect x="2" y="158" width="8" height="8" rx="1"/><rect x="14" y="158" width="8" height="8" rx="1"/><rect x="26" y="158" width="8" height="8" rx="1"/><rect x="38" y="158" width="8" height="8" rx="1"/><rect x="50" y="158" width="8" height="8" rx="1"/>
          <rect x="2" y="146" width="8" height="8" rx="1"/><rect x="14" y="146" width="8" height="8" rx="1"/><rect x="26" y="146" width="8" height="8" rx="1"/><rect x="38" y="146" width="8" height="8" rx="1"/><rect x="50" y="146" width="8" height="8" rx="1"/>
          <rect x="2" y="134" width="8" height="8" rx="1"/><rect x="14" y="134" width="8" height="8" rx="1"/><rect x="26" y="134" width="8" height="8" rx="1"/><rect x="38" y="134" width="8" height="8" rx="1"/><rect x="50" y="134" width="8" height="8" rx="1"/>
          <rect x="2" y="122" width="8" height="8" rx="1"/><rect x="14" y="122" width="8" height="8" rx="1"/><rect x="26" y="122" width="8" height="8" rx="1"/><rect x="38" y="122" width="8" height="8" rx="1"/><rect x="50" y="122" width="8" height="8" rx="1"/>
          <rect x="2" y="110" width="8" height="8" rx="1"/><rect x="14" y="110" width="8" height="8" rx="1"/><rect x="26" y="110" width="8" height="8" rx="1"/><rect x="38" y="110" width="8" height="8" rx="1"/><rect x="50" y="110" width="8" height="8" rx="1"/>
          <rect x="2" y="98"  width="8" height="8" rx="1"/><rect x="14" y="98" width="8" height="8" rx="1"/><rect x="26" y="98" width="8" height="8" rx="1"/><rect x="38" y="98" width="8" height="8" rx="1"/><rect x="50" y="98" width="8" height="8" rx="1"/>
          <rect x="2" y="86"  width="8" height="8" rx="1"/><rect x="14" y="86" width="8" height="8" rx="1"/><rect x="26" y="86" width="8" height="8" rx="1"/><rect x="38" y="86" width="8" height="8" rx="1"/><rect x="50" y="86" width="8" height="8" rx="1"/>
          <rect x="2" y="74"  width="8" height="8" rx="1"/><rect x="14" y="74" width="8" height="8" rx="1"/><rect x="26" y="74" width="8" height="8" rx="1"/><rect x="38" y="74" width="8" height="8" rx="1"/><rect x="50" y="74" width="8" height="8" rx="1"/>
          <rect x="2" y="62"  width="8" height="8" rx="1"/><rect x="14" y="62" width="8" height="8" rx="1"/><rect x="26" y="62" width="8" height="8" rx="1"/><rect x="38" y="62" width="8" height="8" rx="1"/><rect x="50" y="62" width="8" height="8" rx="1"/>
          <rect x="2" y="50"  width="8" height="8" rx="1"/><rect x="14" y="50" width="8" height="8" rx="1"/><rect x="26" y="50" width="8" height="8" rx="1"/>
        </g>
      </g>
    </g>

    <text x="20" y="440" class="subtle">decomposeByBase100 produces one entry per column, top first:</text>
    <text x="20" y="464" class="mono"><tspan fill="#4cd07d">{m:3, v:12}</tspan>  <tspan fill="#4ea8ff">{m:2, v:34}</tspan>  <tspan fill="#7bb5f0">{m:1, v:56}</tspan>  <tspan fill="#c4cad2">{m:0, v:78}</tspan></text>

    <text x="20" y="498" class="subtle">When the lowest column ticks past 99, the column above it gains</text>
    <text x="20" y="514" class="subtle">one — that's a "rollover", and 100 = 99+1 lines up with</text>
    <text x="20" y="530" class="subtle"><tspan class="mono" fill="#b9c1ff">SLOT_COUNT</tspan>, so the visual rollover matches.</text>
  </g>

  <!-- =================================================================== -->
  <!-- SECTION 3: Two modes side by side                                   -->
  <!-- =================================================================== -->
  <g transform="translate(40, 680)">
    <rect class="panel" width="1120" height="380" rx="12"/>
    <text x="20" y="34" class="panel-title">3 · Two flow Modes</text>

    <!-- Discrete -->
    <g transform="translate(40, 70)">
      <text x="0" y="0" font-weight="600" font-size="15" fill="#4cd07d">DISCRETE · "stacking"</text>
      <text x="0" y="20" class="subtle">Items fly in, settle in slots, fill the grid, drain, repeat.</text>
      <text x="0" y="38" class="mono subtle">mode === 'discrete'  ·  rate per column &lt; RATE_TO_DISCRETE (18/s)</text>

      <!-- mini column with arrows showing flight -->
      <g transform="translate(0, 60)">
        <rect class="col-outline" x="0" y="0" width="100" height="200" rx="2"/>
        <!-- settled items at bottom -->
        <g fill="#4cd07d">
          <rect x="2" y="186" width="14" height="12" rx="2"/><rect x="22" y="186" width="14" height="12" rx="2"/><rect x="42" y="186" width="14" height="12" rx="2"/><rect x="62" y="186" width="14" height="12" rx="2"/><rect x="82" y="186" width="14" height="12" rx="2"/>
          <rect x="2" y="170" width="14" height="12" rx="2"/><rect x="22" y="170" width="14" height="12" rx="2"/><rect x="42" y="170" width="14" height="12" rx="2"/><rect x="62" y="170" width="14" height="12" rx="2"/><rect x="82" y="170" width="14" height="12" rx="2"/>
          <rect x="2" y="154" width="14" height="12" rx="2"/><rect x="22" y="154" width="14" height="12" rx="2"/><rect x="42" y="154" width="14" height="12" rx="2"/><rect x="62" y="154" width="14" height="12" rx="2"/>
        </g>
        <!-- flying particle on its way -->
        <rect x="42" y="80" width="14" height="12" rx="2" fill="#4cd07d" opacity="0.9"/>
        <line x1="49" y1="50" x2="49" y2="78" stroke="#4cd07d" stroke-width="1.2" stroke-dasharray="3 3" marker-end="url(#arr)"/>
        <text x="60" y="70" class="mono" font-size="11">state='flying'</text>
        <line x1="105" y1="160" x2="120" y2="160" stroke="#5a6a90" stroke-width="0.8" marker-end="url(#arrSoft)"/>
        <text x="125" y="164" class="mono subtle" font-size="11">state='settled'</text>
      </g>

      <text x="0" y="304" class="subtle">When cycleSpawnCount hits 100:</text>
      <text x="0" y="322" class="mono"><tspan fill="#ff7a8c">_beginDrain()</tspan> <tspan class="subtle">→ phase='draining', all → 'leaving'</tspan></text>
    </g>

    <!-- Continuous -->
    <g transform="translate(580, 70)">
      <text x="0" y="0" font-weight="600" font-size="15" fill="#ff8a3a">CONTINUOUS · "streaming"</text>
      <text x="0" y="20" class="subtle">Items pour top→bottom and exit. No slots, random x.</text>
      <text x="0" y="38" class="mono subtle">mode === 'continuous'  ·  rate per column &gt; RATE_TO_CONTINUOUS (30/s)</text>

      <!-- mini column with streaming particles falling -->
      <g transform="translate(0, 60)">
        <rect class="col-outline" x="0" y="0" width="100" height="200" rx="2"/>
        <g fill="#ff8a3a">
          <rect x="14" y="14" width="10" height="10" rx="2"/>
          <rect x="60" y="36" width="10" height="10" rx="2"/>
          <rect x="32" y="62" width="10" height="10" rx="2"/>
          <rect x="78" y="88" width="10" height="10" rx="2"/>
          <rect x="20" y="112" width="10" height="10" rx="2"/>
          <rect x="52" y="138" width="10" height="10" rx="2"/>
          <rect x="6"  y="160" width="10" height="10" rx="2"/>
          <rect x="74" y="180" width="10" height="10" rx="2" opacity="0.6"/>
        </g>
        <!-- arrows showing direction -->
        <line x1="49" y1="-12" x2="49" y2="6"  stroke="#ff8a3a" stroke-width="1.2" marker-end="url(#arr)"/>
        <text x="60" y="-2" class="mono subtle" font-size="11">spawn at top</text>
        <line x1="105" y1="100" x2="120" y2="100" stroke="#5a6a90" stroke-width="0.8" marker-end="url(#arrSoft)"/>
        <text x="125" y="104" class="mono subtle" font-size="11">state='streaming'</text>
        <line x1="49" y1="206" x2="49" y2="222" stroke="#ff8a3a" stroke-width="1.2" marker-end="url(#arr)" stroke-dasharray="2 2"/>
        <text x="60" y="222" class="mono subtle" font-size="11">exit &amp; become idle</text>
      </g>

      <text x="0" y="304" class="subtle">Speed scales with rate:</text>
      <text x="0" y="322" class="mono"><tspan fill="#b9c1ff">_streamSpeed</tspan> <tspan class="subtle">∈ [</tspan>CONTINUOUS_FALL_SPEED<tspan class="subtle">, </tspan>STREAM_MAX_SPEED<tspan class="subtle">]</tspan></text>
    </g>

    <!-- arrow between -->
    <g transform="translate(480, 200)">
      <line x1="0" y1="0" x2="60" y2="0" stroke="#8aa0ff" stroke-width="1.5" marker-end="url(#arr)" marker-start="url(#arr)"/>
      <text x="30" y="-8" text-anchor="middle" class="mono subtle" font-size="11">hysteresis</text>
      <text x="30" y="18" text-anchor="middle" class="mono subtle" font-size="11">18 ↔ 30 /s</text>
    </g>
  </g>

  <!-- =================================================================== -->
  <!-- SECTION 4: Particle state machine                                   -->
  <!-- =================================================================== -->
  <g transform="translate(40, 1100)">
    <rect class="panel" width="780" height="420" rx="12"/>
    <text x="20" y="34" class="panel-title">4 · Particle states</text>

    <!-- State machine: idle → flying → settled → leaving → idle, and idle → streaming → idle -->
    <g transform="translate(40, 80)">
      <!-- idle -->
      <g transform="translate(0, 130)">
        <rect x="-50" y="-22" width="100" height="44" rx="22" fill="#1a1a30" stroke="#8a8ac0" stroke-width="1.2"/>
        <text x="0" y="5" text-anchor="middle" class="mono" fill="#8a8ac0">idle</text>
      </g>

      <!-- flying -->
      <g transform="translate(180, 40)">
        <rect x="-50" y="-22" width="100" height="44" rx="22" fill="#1a1a30" stroke="#4cd07d" stroke-width="1.2"/>
        <text x="0" y="5" text-anchor="middle" class="mono" fill="#4cd07d">flying</text>
      </g>

      <!-- settled -->
      <g transform="translate(360, 40)">
        <rect x="-50" y="-22" width="100" height="44" rx="22" fill="#1a1a30" stroke="#4cd07d" stroke-width="1.2"/>
        <text x="0" y="5" text-anchor="middle" class="mono" fill="#4cd07d">settled</text>
      </g>

      <!-- streaming -->
      <g transform="translate(180, 220)">
        <rect x="-50" y="-22" width="100" height="44" rx="22" fill="#1a1a30" stroke="#ff8a3a" stroke-width="1.2"/>
        <text x="0" y="5" text-anchor="middle" class="mono" fill="#ff8a3a">streaming</text>
      </g>

      <!-- leaving -->
      <g transform="translate(540, 130)">
        <rect x="-50" y="-22" width="100" height="44" rx="22" fill="#1a1a30" stroke="#ff7a8c" stroke-width="1.2"/>
        <text x="0" y="5" text-anchor="middle" class="mono" fill="#ff7a8c">leaving</text>
      </g>

      <!-- arrows -->
      <!-- idle → flying (discrete spawn) -->
      <line x1="48" y1="115" x2="128" y2="55" stroke="#8aa0ff" stroke-width="1.2" marker-end="url(#arr)"/>
      <text x="60" y="78" class="mono subtle" font-size="11">_spawnDiscrete</text>

      <!-- flying → settled (arrive in discrete filling phase) -->
      <line x1="230" y1="40" x2="310" y2="40" stroke="#8aa0ff" stroke-width="1.2" marker-end="url(#arr)"/>
      <text x="270" y="32" text-anchor="middle" class="mono subtle" font-size="11">arrive</text>

      <!-- flying → leaving (arrive while draining / past-target) -->
      <line x1="230" y1="48" x2="492" y2="120" stroke="#5a6a90" stroke-width="0.8" marker-end="url(#arrSoft)" stroke-dasharray="3 3"/>
      <text x="350" y="100" class="mono subtle" font-size="11" opacity="0.7">arrive (draining)</text>

      <!-- settled → leaving (drain) -->
      <line x1="410" y1="48" x2="492" y2="120" stroke="#ff7a8c" stroke-width="1.2" marker-end="url(#arr)"/>
      <text x="460" y="78" text-anchor="middle" class="mono" font-size="11" fill="#ff7a8c">_beginDrain</text>

      <!-- idle → streaming (continuous spawn) -->
      <line x1="48" y1="145" x2="128" y2="210" stroke="#8aa0ff" stroke-width="1.2" marker-end="url(#arr)"/>
      <text x="60" y="195" class="mono subtle" font-size="11">_spawnContinuous</text>

      <!-- streaming → leaving (rate drop triggers exit) -->
      <line x1="230" y1="215" x2="492" y2="145" stroke="#5a6a90" stroke-width="0.8" marker-end="url(#arrSoft)" stroke-dasharray="3 3"/>
      <text x="360" y="200" class="mono subtle" font-size="11" opacity="0.7">_exitContinuous</text>

      <!-- streaming → idle (out the bottom) -->
      <path d="M 130 235 Q 0 280 -10 175" fill="none" stroke="#8aa0ff" stroke-width="1.2" marker-end="url(#arr)"/>
      <text x="-30" y="270" class="mono subtle" font-size="11">past bottom</text>

      <!-- leaving → idle -->
      <path d="M 540 155 Q 460 320 50 175" fill="none" stroke="#8aa0ff" stroke-width="1.2" marker-end="url(#arr)"/>
      <text x="290" y="305" text-anchor="middle" class="mono subtle" font-size="11">faded past bottom</text>
    </g>
  </g>

  <!-- =================================================================== -->
  <!-- SECTION 5: Constants cheat-card                                     -->
  <!-- =================================================================== -->
  <g transform="translate(840, 1100)">
    <rect class="panel" width="320" height="420" rx="12"/>
    <text x="20" y="34" class="panel-title">5 · Tuning knobs</text>

    <g transform="translate(20, 70)" font-size="12">
      <text x="0" y="0" font-weight="600" fill="#c0c8ff">Grid</text>
      <text x="0" y="20" class="mono"><tspan fill="#b9c1ff">GRID_W</tspan> <tspan fill="#8a8ac0">= 5</tspan></text>
      <text x="0" y="38" class="mono"><tspan fill="#b9c1ff">GRID_H</tspan> <tspan fill="#8a8ac0">= 20</tspan></text>
      <text x="0" y="56" class="mono"><tspan fill="#b9c1ff">SLOT_COUNT</tspan> <tspan fill="#8a8ac0">= 100  (must equal base-100)</tspan></text>
      <text x="0" y="74" class="mono"><tspan fill="#b9c1ff">COLUMN_COUNT</tspan> <tspan fill="#8a8ac0">= 5</tspan></text>

      <text x="0" y="106" font-weight="600" fill="#c0c8ff">Mode hysteresis</text>
      <text x="0" y="126" class="mono"><tspan fill="#b9c1ff">RATE_TO_CONTINUOUS</tspan> <tspan fill="#8a8ac0">= 30</tspan></text>
      <text x="0" y="144" class="mono"><tspan fill="#b9c1ff">RATE_TO_DISCRETE</tspan>   <tspan fill="#8a8ac0">= 18</tspan></text>
      <text x="0" y="160" class="subtle" font-size="11">per-column rate, in items/sec</text>

      <text x="0" y="192" font-weight="600" fill="#c0c8ff">Discrete timing</text>
      <text x="0" y="212" class="mono"><tspan fill="#b9c1ff">SPAWN_INTERVAL</tspan> <tspan fill="#8a8ac0">= 0.025s</tspan></text>
      <text x="0" y="230" class="mono"><tspan fill="#b9c1ff">FLIGHT_TIME</tspan> <tspan fill="#8a8ac0">= 1.4s</tspan></text>
      <text x="0" y="248" class="mono"><tspan fill="#b9c1ff">SNAP_BACKLOG</tspan> <tspan fill="#8a8ac0">= 400 items</tspan></text>

      <text x="0" y="280" font-weight="600" fill="#c0c8ff">Continuous timing</text>
      <text x="0" y="300" class="mono"><tspan fill="#b9c1ff">CONTINUOUS_FALL_SPEED</tspan> <tspan fill="#8a8ac0">= 8.5</tspan></text>
      <text x="0" y="318" class="mono"><tspan fill="#b9c1ff">STREAM_MAX_SPEED</tspan> <tspan fill="#8a8ac0">= 38</tspan></text>

      <text x="0" y="350" font-weight="600" fill="#c0c8ff">Pool</text>
      <text x="0" y="370" class="mono"><tspan fill="#b9c1ff">POOL_SIZE</tspan> <tspan fill="#8a8ac0">= 320 per column</tspan></text>
    </g>
  </g>

  <!-- Footer -->
  <text x="600" y="1580" text-anchor="middle" class="subtle" font-size="11">All names match identifiers in src/display.js — use them verbatim when prompting.</text>
</svg>
