<svg xmlns="http://www.w3.org/2000/svg" viewBox="0 0 1200 1640" font-family="-apple-system, BlinkMacSystemFont, 'Segoe UI', sans-serif" font-size="13" fill="#e8e8f0"><defs><marker id="arr" viewBox="0 0 10 10" refX="9" refY="5" markerWidth="8" markerHeight="8" orient="auto-start-reverse"><path d="M0 0l10 5-10 5z" fill="#8aa0ff"/></marker><marker id="arrSoft" viewBox="0 0 10 10" refX="9" refY="5" markerWidth="7" markerHeight="7" orient="auto-start-reverse"><path d="M0 0l10 5-10 5z" fill="#5a6a90"/></marker><style>.panel{fill:rgba(20,20,40,.78);stroke:rgba(120,140,255,.3);stroke-width:1}.panel-title{font-size:16px;font-weight:600;letter-spacing:.08em;text-transform:uppercase;fill:#c0c8ff}.subtle{fill:#8a8ac0}.mono{font-family:ui-monospace,&apos;SF Mono&apos;,Menlo,monospace}.col-outline{fill:none;stroke:#446;stroke-width:1.2}.slot-empty{fill:rgba(120,140,255,.06);stroke:rgba(120,140,255,.18);stroke-width:.5}</style></defs><path fill="#0a0a14" d="M0 0H1200V1640H0z"/><text x="600" y="46" text-anchor="middle" font-size="26" font-weight="700" fill="#fff">Column Display — Cheatsheet</text><text x="600" y="70" text-anchor="middle" class="subtle">src/display.js · vocabulary reference</text><g transform="translate(40 100)"><rect class="panel" width="540" height="540" rx="12"/><text x="20" y="34" class="panel-title">1 · Anatomy of one Column</text><g transform="translate(60 70)"><rect class="col-outline" width="100" height="400" rx="2"/><rect class="slot-empty" y="380" width="20" height="20" rx="2"/><rect class="slot-empty" x="20" y="380" width="20" height="20" rx="2"/><rect class="slot-empty" x="40" y="380" width="20" height="20" rx="2"/><rect class="slot-empty" x="60" y="380" width="20" height="20" rx="2"/><rect class="slot-empty" x="80" y="380" width="20" height="20" rx="2"/><rect class="slot-empty" y="360" width="20" height="20" rx="2"/><rect class="slot-empty" x="20" y="360" width="20" height="20" rx="2"/><rect class="slot-empty" x="40" y="360" width="20" height="20" rx="2"/><rect class="slot-empty" x="60" y="360" width="20" height="20" rx="2"/><rect class="slot-empty" x="80" y="360" width="20" height="20" rx="2"/><rect class="slot-empty" y="340" width="20" height="20" rx="2"/><rect class="slot-empty" x="20" y="340" width="20" height="20" rx="2"/><rect class="slot-empty" x="40" y="340" width="20" height="20" rx="2"/><rect class="slot-empty" x="60" y="340" width="20" height="20" rx="2"/><rect class="slot-empty" x="80" y="340" width="20" height="20" rx="2"/><rect class="slot-empty" y="320" width="20" height="20" rx="2"/><rect class="slot-empty" x="20" y="320" width="20" height="20" rx="2"/><rect class="slot-empty" x="40" y="320" width="20" height="20" rx="2"/><rect class="slot-empty" x="60" y="320" width="20" height="20" rx="2"/><rect class="slot-empty" x="80" y="320" width="20" height="20" rx="2"/><rect class="slot-empty" y="300" width="20" height="20" rx="2"/><rect class="slot-empty" x="20" y="300" width="20" height="20" rx="2"/><rect class="slot-empty" x="40" y="300" width="20" height="20" rx="2"/><rect class="slot-empty" x="60" y="300" width="20" height="20" rx="2"/><rect class="slot-empty" x="80" y="300" width="20" height="20" rx="2"/><rect class="slot-empty" y="280" width="20" height="20" rx="2"/><rect class="slot-empty" x="20" y="280" width="20" height="20" rx="2"/><rect class="slot-empty" x="40" y="280" width="20" height="20" rx="2"/><rect class="slot-empty" x="60" y="280" width="20" height="20" rx="2"/><rect class="slot-empty" x="80" y="280" width="20" height="20" rx="2"/><rect class="slot-empty" y="260" width="20" height="20" rx="2"/><rect class="slot-empty" x="20" y="260" width="20" height="20" rx="2"/><rect class="slot-empty" x="40" y="260" width="20" height="20" rx="2"/><rect class="slot-empty" x="60" y="260" width="20" height="20" rx="2"/><rect class="slot-empty" x="80" y="260" width="20" height="20" rx="2"/><rect class="slot-empty" y="240" width="20" height="20" rx="2"/><rect class="slot-empty" x="20" y="240" width="20" height="20" rx="2"/><rect class="slot-empty" x="40" y="240" width="20" height="20" rx="2"/><rect class="slot-empty" x="60" y="240" width="20" height="20" rx="2"/><rect class="slot-empty" x="80" y="240" width="20" height="20" rx="2"/><rect class="slot-empty" y="220" width="20" height="20" rx="2"/><rect class="slot-empty" x="20" y="220" width="20" height="20" rx="2"/><rect class="slot-empty" x="40" y="220" width="20" height="20" rx="2"/><rect class="slot-empty" x="60" y="220" width="20" height="20" rx="2"/><rect class="slot-empty" x="80" y="220" width="20" height="20" rx="2"/><rect class="slot-empty" y="200" width="20" height="20" rx="2"/><rect class="slot-empty" x="20" y="200" width="20" height="20" rx="2"/><rect class="slot-empty" x="40" y="200" width="20" height="20" rx="2"/><rect class="slot-empty" x="60" y="200" width="20" height="20" rx="2"/><rect class="slot-empty" x="80" y="200" width="20" height="20" rx="2"/><rect class="slot-empty" y="180" width="20" height="20" rx="2"/><rect class="slot-empty" x="20" y="180" width="20" height="20" rx="2"/><rect class="slot-empty" x="40" y="180" width="20" height="20" rx="2"/><rect class="slot-empty" x="60" y="180" width="20" height="20" rx="2"/><rect class="slot-empty" x="80" y="180" width="20" height="20" rx="2"/><rect class="slot-empty" y="160" width="20" height="20" rx="2"/><rect class="slot-empty" x="20" y="160" width="20" height="20" rx="2"/><rect class="slot-empty" x="40" y="160" width="20" height="20" rx="2"/><rect class="slot-empty" x="60" y="160" width="20" height="20" rx="2"/><rect class="slot-empty" x="80" y="160" width="20" height="20" rx="2"/><rect class="slot-empty" y="140" width="20" height="20" rx="2"/><rect class="slot-empty" x="20" y="140" width="20" height="20" rx="2"/><rect class="slot-empty" x="40" y="140" width="20" height="20" rx="2"/><rect class="slot-empty" x="60" y="140" width="20" height="20" rx="2"/><rect class="slot-empty" x="80" y="140" width="20" height="20" rx="2"/><rect class="slot-empty" y="120" width="20" height="20" rx="2"/><rect class="slot-empty" x="20" y="120" width="20" height="20" rx="2"/><rect class="slot-empty" x="40" y="120" width="20" height="20" rx="2"/><rect class="slot-empty" x="60" y="120" width="20" height="20" rx="2"/><rect class="slot-empty" x="80" y="120" width="20" height="20" rx="2"/><rect class="slot-empty" y="100" width="20" height="20" rx="2"/><rect class="slot-empty" x="20" y="100" width="20" height="20" rx="2"/><rect class="slot-empty" x="40" y="100" width="20" height="20" rx="2"/><rect class="slot-empty" x="60" y="100" width="20" height="20" rx="2"/><rect class="slot-empty" x="80" y="100" width="20" height="20" rx="2"/><rect class="slot-empty" y="80" width="20" height="20" rx="2"/><rect class="slot-empty" x="20" y="80" width="20" height="20" rx="2"/><rect class="slot-empty" x="40" y="80" width="20" height="20" rx="2"/><rect class="slot-empty" x="60" y="80" width="20" height="20" rx="2"/><rect class="slot-empty" x="80" y="80" width="20" height="20" rx="2"/><rect class="slot-empty" y="60" width="20" height="20" rx="2"/><rect class="slot-empty" x="20" y="60" width="20" height="20" rx="2"/><rect class="slot-empty" x="40" y="60" width="20" height="20" rx="2"/><rect class="slot-empty" x="60" y="60" width="20" height="20" rx="2"/><rect class="slot-empty" x="80" y="60" width="20" height="20" rx="2"/><rect class="slot-empty" y="40" width="20" height="20" rx="2"/><rect class="slot-empty" x="20" y="40" width="20" height="20" rx="2"/><rect class="slot-empty" x="40" y="40" width="20" height="20" rx="2"/><rect class="slot-empty" x="60" y="40" width="20" height="20" rx="2"/><rect class="slot-empty" x="80" y="40" width="20" height="20" rx="2"/><rect class="slot-empty" y="20" width="20" height="20" rx="2"/><rect class="slot-empty" x="20" y="20" width="20" height="20" rx="2"/><rect class="slot-empty" x="40" y="20" width="20" height="20" rx="2"/><rect class="slot-empty" x="60" y="20" width="20" height="20" rx="2"/><rect class="slot-empty" x="80" y="20" width="20" height="20" rx="2"/><rect class="slot-empty" width="20" height="20" rx="2"/><rect class="slot-empty" x="20" width="20" height="20" rx="2"/><rect class="slot-empty" x="40" width="20" height="20" rx="2"/><rect class="slot-empty" x="60" width="20" height="20" rx="2"/><rect class="slot-empty" x="80" width="20" height="20" rx="2"/><g transform="translate(0 380)" fill="#4ea8ff"><rect x="2" y="2" width="16" height="16" rx="2"/><rect x="22" y="2" width="16" height="16" rx="2"/><rect x="42" y="2" width="16" height="16" rx="2"/><rect x="62" y="2" width="16" height="16" rx="2"/><rect x="82" y="2" width="16" height="16" rx="2"/></g><g transform="translate(0 360)" fill="#4ea8ff"><rect x="2" y="2" width="16" height="16" rx="2"/><rect x="22" y="2" width="16" height="16" rx="2"/><rect x="42" y="2" width="16" height="16" rx="2"/><rect x="62" y="2" width="16" height="16" rx="2"/><rect x="82" y="2" width="16" height="16" rx="2"/></g><g transform="translate(0 340)" fill="#4ea8ff"><rect x="2" y="2" width="16" height="16" rx="2"/><rect x="22" y="2" width="16" height="16" rx="2"/><rect x="42" y="2" width="16" height="16" rx="2"/><rect x="62" y="2" width="16" height="16" rx="2"/><rect x="82" y="2" width="16" height="16" rx="2"/></g><g transform="translate(0 320)" fill="#4ea8ff"><rect x="2" y="2" width="16" height="16" rx="2"/><rect x="22" y="2" width="16" height="16" rx="2"/><rect x="42" y="2" width="16" height="16" rx="2"/><rect x="62" y="2" width="16" height="16" rx="2"/><rect x="82" y="2" width="16" height="16" rx="2"/></g><g transform="translate(0 300)" fill="#4ea8ff"><rect x="2" y="2" width="16" height="16" rx="2"/><rect x="22" y="2" width="16" height="16" rx="2"/><rect x="42" y="2" width="16" height="16" rx="2"/><rect x="62" y="2" width="16" height="16" rx="2"/><rect x="82" y="2" width="16" height="16" rx="2"/></g><g transform="translate(0 280)" fill="#4ea8ff"><rect x="2" y="2" width="16" height="16" rx="2"/><rect x="22" y="2" width="16" height="16" rx="2"/><rect x="42" y="2" width="16" height="16" rx="2"/><rect x="62" y="2" width="16" height="16" rx="2"/><rect x="82" y="2" width="16" height="16" rx="2"/></g><g transform="translate(0 260)" fill="#4ea8ff"><rect x="2" y="2" width="16" height="16" rx="2"/><rect x="22" y="2" width="16" height="16" rx="2"/><rect x="42" y="2" width="16" height="16" rx="2"/><rect x="62" y="2" width="16" height="16" rx="2"/><rect x="82" y="2" width="16" height="16" rx="2"/></g><g transform="translate(0 240)" fill="#4ea8ff"><rect x="2" y="2" width="16" height="16" rx="2"/><rect x="22" y="2" width="16" height="16" rx="2"/><rect x="42" y="2" width="16" height="16" rx="2"/><rect x="62" y="2" width="16" height="16" rx="2"/><rect x="82" y="2" width="16" height="16" rx="2"/></g><g transform="translate(0 220)" fill="#4ea8ff"><rect x="2" y="2" width="16" height="16" rx="2"/><rect x="22" y="2" width="16" height="16" rx="2"/><rect x="42" y="2" width="16" height="16" rx="2"/><rect x="62" y="2" width="16" height="16" rx="2"/><rect x="82" y="2" width="16" height="16" rx="2"/></g><path stroke="#8aa0ff" marker-end="url(#arr)" d="M-30 390L-1 390"/><text x="-35" y="394" text-anchor="end" class="mono">slot 0</text><path stroke="#8aa0ff" marker-end="url(#arr)" d="M130 10L101 10"/><text x="135" y="14" class="mono">slot 99</text><path stroke="#f5d34a" marker-end="url(#arr)" d="M130 230L101 230"/><text x="135" y="222" class="mono" fill="#f5d34a">cycleSpawn-</text><text x="135" y="238" class="mono" fill="#f5d34a">Count = 45</text><path stroke="#8a8ac0" stroke-width=".5" d="M0 420L100 420"/><path stroke="#8a8ac0" stroke-width=".5" d="M0 416L0 424"/><path stroke="#8a8ac0" stroke-width=".5" d="M100 416L100 424"/><text x="50" y="436" text-anchor="middle" class="mono subtle">GRID_W = 5</text><path stroke="#8a8ac0" stroke-width=".5" d="M-15 0L-15 400"/><path stroke="#8a8ac0" stroke-width=".5" d="M-19 0L-11 0"/><path stroke="#8a8ac0" stroke-width=".5" d="M-19 400L-11 400"/><text x="-25" y="204" text-anchor="middle" class="mono subtle" transform="rotate(-90 -25 204)">GRID_H = 20</text></g><text font-weight="600" fill="#c0c8ff" transform="translate(280 90)">Column</text><text y="20" class="subtle" transform="translate(280 90)">A vertical bar showing one base-100</text><text y="36" class="subtle" transform="translate(280 90)">magnitude (<tspan class="mono" fill="#b9c1ff">m100</tspan>) of the total amount.</text><text y="74" font-weight="600" fill="#c0c8ff" transform="translate(280 90)">Slot</text><text y="94" class="subtle" transform="translate(280 90)">A fixed cell. There are exactly</text><text y="110" class="subtle" transform="translate(280 90)"><tspan class="mono" fill="#b9c1ff">GRID_W × GRID_H = 100</tspan> per column —</text><text y="126" class="subtle" transform="translate(280 90)">matches base-100 so rollover lines up.</text><text y="164" font-weight="600" fill="#c0c8ff" transform="translate(280 90)">Particle</text><text y="184" class="subtle" transform="translate(280 90)">A pooled 3D mesh (<tspan class="mono" fill="#b9c1ff">POOL_SIZE = 320</tspan></text><text y="200" class="subtle" transform="translate(280 90)">per column). Shape and colour come</text><text y="216" class="subtle" transform="translate(280 90)">from <tspan class="mono" fill="#b9c1ff">period</tspan> + <tspan class="mono" fill="#b9c1ff">rank</tspan> via PERIODS table.</text><text y="254" font-weight="600" fill="#c0c8ff" transform="translate(280 90)">slotIndex layout</text><text y="274" class="mono subtle" transform="translate(280 90)">col = slotIndex % GRID_W</text><text y="290" class="mono subtle" transform="translate(280 90)">row = floor(slotIndex / GRID_W)</text><text y="306" class="subtle" transform="translate(280 90)">Slot 0 is bottom-left, slot 99 top-right.</text><text y="344" font-weight="600" fill="#c0c8ff" transform="translate(280 90)">Counters</text><text y="364" class="mono" transform="translate(280 90)"><tspan fill="#b9c1ff">processed</tspan> <tspan class="subtle">= floor(amount / 100^m100)</tspan></text><text y="380" class="mono" transform="translate(280 90)"><tspan fill="#b9c1ff">cycleSpawnCount</tspan> <tspan class="subtle">= processed % 100</tspan></text><text y="396" class="mono" transform="translate(280 90)"><tspan fill="#b9c1ff">aliveCount</tspan> <tspan class="subtle">= live (non-idle) particles</tspan></text><text y="434" class="subtle" font-size="11" font-style="italic" transform="translate(280 90)">Visual: 45 settled = cycleSpawnCount=45,</text><text y="450" class="subtle" font-size="11" font-style="italic" transform="translate(280 90)">processed could be 45, 145, 245, …</text></g><g transform="translate(620 100)"><rect class="panel" width="540" height="540" rx="12"/><text x="20" y="34" class="panel-title">2 · amount → columns</text><text x="20" y="70" class="mono" fill="#b9c1ff">amount = 12,345,678</text><text x="20" y="90" class="subtle" font-size="11">Each column shows two decimal digits of the number.</text><g transform="translate(40 110)"><g><rect class="col-outline" width="60" height="240" rx="2"/><text x="30" y="-8" text-anchor="middle" font-weight="600" fill="#4cd07d">m100 = 3</text><text x="30" y="260" text-anchor="middle" class="mono" fill="#4cd07d">value = 12</text><text x="30" y="278" text-anchor="middle" class="subtle" font-size="11">period m · rank 1</text><g fill="#4cd07d"><rect x="2" y="230" width="8" height="8" rx="1"/><rect x="14" y="230" width="8" height="8" rx="1"/><rect x="26" y="230" width="8" height="8" rx="1"/><rect x="38" y="230" width="8" height="8" rx="1"/><rect x="50" y="230" width="8" height="8" rx="1"/><rect x="2" y="218" width="8" height="8" rx="1"/><rect x="14" y="218" width="8" height="8" rx="1"/><rect x="26" y="218" width="8" height="8" rx="1"/><rect x="38" y="218" width="8" height="8" rx="1"/><rect x="50" y="218" width="8" height="8" rx="1"/><rect x="2" y="206" width="8" height="8" rx="1"/><rect x="14" y="206" width="8" height="8" rx="1"/></g></g><g transform="translate(110)"><rect class="col-outline" width="60" height="240" rx="2"/><text x="30" y="-8" text-anchor="middle" font-weight="600" fill="#4ea8ff">m100 = 2</text><text x="30" y="260" text-anchor="middle" class="mono" fill="#4ea8ff">value = 34</text><text x="30" y="278" text-anchor="middle" class="subtle" font-size="11">period k · rank 2</text><g fill="#4ea8ff"><rect x="2" y="230" width="8" height="8" rx="1"/><rect x="14" y="230" width="8" height="8" rx="1"/><rect x="26" y="230" width="8" height="8" rx="1"/><rect x="38" y="230" width="8" height="8" rx="1"/><rect x="50" y="230" width="8" height="8" rx="1"/><rect x="2" y="218" width="8" height="8" rx="1"/><rect x="14" y="218" width="8" height="8" rx="1"/><rect x="26" y="218" width="8" height="8" rx="1"/><rect x="38" y="218" width="8" height="8" rx="1"/><rect x="50" y="218" width="8" height="8" rx="1"/><rect x="2" y="206" width="8" height="8" rx="1"/><rect x="14" y="206" width="8" height="8" rx="1"/><rect x="26" y="206" width="8" height="8" rx="1"/><rect x="38" y="206" width="8" height="8" rx="1"/><rect x="50" y="206" width="8" height="8" rx="1"/><rect x="2" y="194" width="8" height="8" rx="1"/><rect x="14" y="194" width="8" height="8" rx="1"/><rect x="26" y="194" width="8" height="8" rx="1"/><rect x="38" y="194" width="8" height="8" rx="1"/><rect x="50" y="194" width="8" height="8" rx="1"/><rect x="2" y="182" width="8" height="8" rx="1"/><rect x="14" y="182" width="8" height="8" rx="1"/><rect x="26" y="182" width="8" height="8" rx="1"/><rect x="38" y="182" width="8" height="8" rx="1"/><rect x="50" y="182" width="8" height="8" rx="1"/><rect x="2" y="170" width="8" height="8" rx="1"/><rect x="14" y="170" width="8" height="8" rx="1"/><rect x="26" y="170" width="8" height="8" rx="1"/><rect x="38" y="170" width="8" height="8" rx="1"/><rect x="50" y="170" width="8" height="8" rx="1"/><rect x="2" y="158" width="8" height="8" rx="1"/><rect x="14" y="158" width="8" height="8" rx="1"/><rect x="26" y="158" width="8" height="8" rx="1"/><rect x="38" y="158" width="8" height="8" rx="1"/></g></g><g transform="translate(220)"><rect class="col-outline" width="60" height="240" rx="2"/><text x="30" y="-8" text-anchor="middle" font-weight="600" fill="#4ea8ff">m100 = 1</text><text x="30" y="260" text-anchor="middle" class="mono" fill="#4ea8ff">value = 56</text><text x="30" y="278" text-anchor="middle" class="subtle" font-size="11">period unit · rank 2</text><g fill="#7bb5f0"><rect x="2" y="230" width="8" height="8" rx="1"/><rect x="14" y="230" width="8" height="8" rx="1"/><rect x="26" y="230" width="8" height="8" rx="1"/><rect x="38" y="230" width="8" height="8" rx="1"/><rect x="50" y="230" width="8" height="8" rx="1"/><rect x="2" y="218" width="8" height="8" rx="1"/><rect x="14" y="218" width="8" height="8" rx="1"/><rect x="26" y="218" width="8" height="8" rx="1"/><rect x="38" y="218" width="8" height="8" rx="1"/><rect x="50" y="218" width="8" height="8" rx="1"/><rect x="2" y="206" width="8" height="8" rx="1"/><rect x="14" y="206" width="8" height="8" rx="1"/><rect x="26" y="206" width="8" height="8" rx="1"/><rect x="38" y="206" width="8" height="8" rx="1"/><rect x="50" y="206" width="8" height="8" rx="1"/><rect x="2" y="194" width="8" height="8" rx="1"/><rect x="14" y="194" width="8" height="8" rx="1"/><rect x="26" y="194" width="8" height="8" rx="1"/><rect x="38" y="194" width="8" height="8" rx="1"/><rect x="50" y="194" width="8" height="8" rx="1"/><rect x="2" y="182" width="8" height="8" rx="1"/><rect x="14" y="182" width="8" height="8" rx="1"/><rect x="26" y="182" width="8" height="8" rx="1"/><rect x="38" y="182" width="8" height="8" rx="1"/><rect x="50" y="182" width="8" height="8" rx="1"/><rect x="2" y="170" width="8" height="8" rx="1"/><rect x="14" y="170" width="8" height="8" rx="1"/><rect x="26" y="170" width="8" height="8" rx="1"/><rect x="38" y="170" width="8" height="8" rx="1"/><rect x="50" y="170" width="8" height="8" rx="1"/><rect x="2" y="158" width="8" height="8" rx="1"/><rect x="14" y="158" width="8" height="8" rx="1"/><rect x="26" y="158" width="8" height="8" rx="1"/><rect x="38" y="158" width="8" height="8" rx="1"/><rect x="50" y="158" width="8" height="8" rx="1"/><rect x="2" y="146" width="8" height="8" rx="1"/><rect x="14" y="146" width="8" height="8" rx="1"/><rect x="26" y="146" width="8" height="8" rx="1"/><rect x="38" y="146" width="8" height="8" rx="1"/><rect x="50" y="146" width="8" height="8" rx="1"/><rect x="2" y="134" width="8" height="8" rx="1"/><rect x="14" y="134" width="8" height="8" rx="1"/><rect x="26" y="134" width="8" height="8" rx="1"/><rect x="38" y="134" width="8" height="8" rx="1"/><rect x="50" y="134" width="8" height="8" rx="1"/><rect x="2" y="122" width="8" height="8" rx="1"/><rect x="14" y="122" width="8" height="8" rx="1"/><rect x="26" y="122" width="8" height="8" rx="1"/><rect x="38" y="122" width="8" height="8" rx="1"/><rect x="50" y="122" width="8" height="8" rx="1"/><rect x="2" y="110" width="8" height="8" rx="1"/><rect x="14" y="110" width="8" height="8" rx="1"/><rect x="26" y="110" width="8" height="8" rx="1"/><rect x="38" y="110" width="8" height="8" rx="1"/><rect x="50" y="110" width="8" height="8" rx="1"/><rect x="2" y="98" width="8" height="8" rx="1"/></g></g><g transform="translate(330)"><rect class="col-outline" width="60" height="240" rx="2"/><text x="30" y="-8" text-anchor="middle" font-weight="600" fill="#c4cad2">m100 = 0</text><text x="30" y="260" text-anchor="middle" class="mono" fill="#c4cad2">value = 78</text><text x="30" y="278" text-anchor="middle" class="subtle" font-size="11">period unit · rank 1</text><g fill="#c4cad2"><rect x="2" y="230" width="8" height="8" rx="1"/><rect x="14" y="230" width="8" height="8" rx="1"/><rect x="26" y="230" width="8" height="8" rx="1"/><rect x="38" y="230" width="8" height="8" rx="1"/><rect x="50" y="230" width="8" height="8" rx="1"/><rect x="2" y="218" width="8" height="8" rx="1"/><rect x="14" y="218" width="8" height="8" rx="1"/><rect x="26" y="218" width="8" height="8" rx="1"/><rect x="38" y="218" width="8" height="8" rx="1"/><rect x="50" y="218" width="8" height="8" rx="1"/><rect x="2" y="206" width="8" height="8" rx="1"/><rect x="14" y="206" width="8" height="8" rx="1"/><rect x="26" y="206" width="8" height="8" rx="1"/><rect x="38" y="206" width="8" height="8" rx="1"/><rect x="50" y="206" width="8" height="8" rx="1"/><rect x="2" y="194" width="8" height="8" rx="1"/><rect x="14" y="194" width="8" height="8" rx="1"/><rect x="26" y="194" width="8" height="8" rx="1"/><rect x="38" y="194" width="8" height="8" rx="1"/><rect x="50" y="194" width="8" height="8" rx="1"/><rect x="2" y="182" width="8" height="8" rx="1"/><rect x="14" y="182" width="8" height="8" rx="1"/><rect x="26" y="182" width="8" height="8" rx="1"/><rect x="38" y="182" width="8" height="8" rx="1"/><rect x="50" y="182" width="8" height="8" rx="1"/><rect x="2" y="170" width="8" height="8" rx="1"/><rect x="14" y="170" width="8" height="8" rx="1"/><rect x="26" y="170" width="8" height="8" rx="1"/><rect x="38" y="170" width="8" height="8" rx="1"/><rect x="50" y="170" width="8" height="8" rx="1"/><rect x="2" y="158" width="8" height="8" rx="1"/><rect x="14" y="158" width="8" height="8" rx="1"/><rect x="26" y="158" width="8" height="8" rx="1"/><rect x="38" y="158" width="8" height="8" rx="1"/><rect x="50" y="158" width="8" height="8" rx="1"/><rect x="2" y="146" width="8" height="8" rx="1"/><rect x="14" y="146" width="8" height="8" rx="1"/><rect x="26" y="146" width="8" height="8" rx="1"/><rect x="38" y="146" width="8" height="8" rx="1"/><rect x="50" y="146" width="8" height="8" rx="1"/><rect x="2" y="134" width="8" height="8" rx="1"/><rect x="14" y="134" width="8" height="8" rx="1"/><rect x="26" y="134" width="8" height="8" rx="1"/><rect x="38" y="134" width="8" height="8" rx="1"/><rect x="50" y="134" width="8" height="8" rx="1"/><rect x="2" y="122" width="8" height="8" rx="1"/><rect x="14" y="122" width="8" height="8" rx="1"/><rect x="26" y="122" width="8" height="8" rx="1"/><rect x="38" y="122" width="8" height="8" rx="1"/><rect x="50" y="122" width="8" height="8" rx="1"/><rect x="2" y="110" width="8" height="8" rx="1"/><rect x="14" y="110" width="8" height="8" rx="1"/><rect x="26" y="110" width="8" height="8" rx="1"/><rect x="38" y="110" width="8" height="8" rx="1"/><rect x="50" y="110" width="8" height="8" rx="1"/><rect x="2" y="98" width="8" height="8" rx="1"/><rect x="14" y="98" width="8" height="8" rx="1"/><rect x="26" y="98" width="8" height="8" rx="1"/><rect x="38" y="98" width="8" height="8" rx="1"/><rect x="50" y="98" width="8" height="8" rx="1"/><rect x="2" y="86" width="8" height="8" rx="1"/><rect x="14" y="86" width="8" height="8" rx="1"/><rect x="26" y="86" width="8" height="8" rx="1"/><rect x="38" y="86" width="8" height="8" rx="1"/><rect x="50" y="86" width="8" height="8" rx="1"/><rect x="2" y="74" width="8" height="8" rx="1"/><rect x="14" y="74" width="8" height="8" rx="1"/><rect x="26" y="74" width="8" height="8" rx="1"/><rect x="38" y="74" width="8" height="8" rx="1"/><rect x="50" y="74" width="8" height="8" rx="1"/><rect x="2" y="62" width="8" height="8" rx="1"/><rect x="14" y="62" width="8" height="8" rx="1"/><rect x="26" y="62" width="8" height="8" rx="1"/><rect x="38" y="62" width="8" height="8" rx="1"/><rect x="50" y="62" width="8" height="8" rx="1"/><rect x="2" y="50" width="8" height="8" rx="1"/><rect x="14" y="50" width="8" height="8" rx="1"/><rect x="26" y="50" width="8" height="8" rx="1"/></g></g></g><text x="20" y="440" class="subtle">decomposeByBase100 produces one entry per column, top first:</text><text x="20" y="464" class="mono"><tspan fill="#4cd07d">{m:3, v:12}</tspan> <tspan fill="#4ea8ff">{m:2, v:34}</tspan> <tspan fill="#7bb5f0">{m:1, v:56}</tspan> <tspan fill="#c4cad2">{m:0, v:78}</tspan></text><text x="20" y="498" class="subtle">When the lowest column ticks past 99, the column above it gains</text><text x="20" y="514" class="subtle">one — that&apos;s a &quot;rollover&quot;, and 100 = 99+1 lines up with</text><text x="20" y="530" class="subtle"><tspan class="mono" fill="#b9c1ff">SLOT_COUNT</tspan>, so the visual rollover matches.</text></g><g transform="translate(40 680)"><rect class="panel" width="1120" height="380" rx="12"/><text x="20" y="34" class="panel-title">3 · Two flow Modes</text><g transform="translate(40 70)"><text font-weight="600" font-size="15" fill="#4cd07d">DISCRETE · &quot;stacking&quot;</text><text y="20" class="subtle">Items fly in, settle in slots, fill the grid, drain, repeat.</text><text y="38" class="mono subtle">mode === &apos;discrete&apos; · rate per column &lt; RATE_TO_DISCRETE (18/s)</text><g transform="translate(0 60)"><rect class="col-outline" width="100" height="200" rx="2"/><g fill="#4cd07d"><rect x="2" y="186" width="14" height="12" rx="2"/><rect x="22" y="186" width="14" height="12" rx="2"/><rect x="42" y="186" width="14" height="12" rx="2"/><rect x="62" y="186" width="14" height="12" rx="2"/><rect x="82" y="186" width="14" height="12" rx="2"/><rect x="2" y="170" width="14" height="12" rx="2"/><rect x="22" y="170" width="14" height="12" rx="2"/><rect x="42" y="170" width="14" height="12" rx="2"/><rect x="62" y="170" width="14" height="12" rx="2"/><rect x="82" y="170" width="14" height="12" rx="2"/><rect x="2" y="154" width="14" height="12" rx="2"/><rect x="22" y="154" width="14" height="12" rx="2"/><rect x="42" y="154" width="14" height="12" rx="2"/><rect x="62" y="154" width="14" height="12" rx="2"/></g><rect x="42" y="80" width="14" height="12" rx="2" fill="#4cd07d" opacity=".9"/><path stroke="#4cd07d" stroke-width="1.2" stroke-dasharray="3 3" marker-end="url(#arr)" d="M49 50L49 78"/><text x="60" y="70" class="mono" font-size="11">state=&apos;flying&apos;</text><path stroke="#5a6a90" stroke-width=".8" marker-end="url(#arrSoft)" d="M105 160L120 160"/><text x="125" y="164" class="mono subtle" font-size="11">state=&apos;settled&apos;</text></g><text y="304" class="subtle">When cycleSpawnCount hits 100:</text><text y="322" class="mono"><tspan fill="#ff7a8c">_beginDrain()</tspan> <tspan class="subtle">→ phase=&apos;draining&apos;, all → &apos;leaving&apos;</tspan></text></g><g transform="translate(580 70)"><text font-weight="600" font-size="15" fill="#ff8a3a">CONTINUOUS · &quot;streaming&quot;</text><text y="20" class="subtle">Items pour top→bottom and exit. No slots, random x.</text><text y="38" class="mono subtle">mode === &apos;continuous&apos; · rate per column &gt; RATE_TO_CONTINUOUS (30/s)</text><g transform="translate(0 60)"><rect class="col-outline" width="100" height="200" rx="2"/><g fill="#ff8a3a"><rect x="14" y="14" width="10" height="10" rx="2"/><rect x="60" y="36" width="10" height="10" rx="2"/><rect x="32" y="62" width="10" height="10" rx="2"/><rect x="78" y="88" width="10" height="10" rx="2"/><rect x="20" y="112" width="10" height="10" rx="2"/><rect x="52" y="138" width="10" height="10" rx="2"/><rect x="6" y="160" width="10" height="10" rx="2"/><rect x="74" y="180" width="10" height="10" rx="2" opacity=".6"/></g><path stroke="#ff8a3a" stroke-width="1.2" marker-end="url(#arr)" d="M49 -12L49 6"/><text x="60" y="-2" class="mono subtle" font-size="11">spawn at top</text><path stroke="#5a6a90" stroke-width=".8" marker-end="url(#arrSoft)" d="M105 100L120 100"/><text x="125" y="104" class="mono subtle" font-size="11">state=&apos;streaming&apos;</text><path stroke="#ff8a3a" stroke-width="1.2" marker-end="url(#arr)" stroke-dasharray="2 2" d="M49 206L49 222"/><text x="60" y="222" class="mono subtle" font-size="11">exit &amp; become idle</text></g><text y="304" class="subtle">Speed scales with rate:</text><text y="322" class="mono"><tspan fill="#b9c1ff">_streamSpeed</tspan> <tspan class="subtle">∈ [</tspan>CONTINUOUS_FALL_SPEED<tspan class="subtle">, </tspan>STREAM_MAX_SPEED<tspan class="subtle">]</tspan></text></g><g transform="translate(480 200)"><path stroke="#8aa0ff" stroke-width="1.5" marker-end="url(#arr)" marker-start="url(#arr)" d="M0 0L60 0"/><text x="30" y="-8" text-anchor="middle" class="mono subtle" font-size="11">hysteresis</text><text x="30" y="18" text-anchor="middle" class="mono subtle" font-size="11">18 ↔ 30 /s</text></g></g><g transform="translate(40 1100)"><rect class="panel" width="780" height="420" rx="12"/><text x="20" y="34" class="panel-title">4 · Particle states</text><g transform="translate(40 80)"><g transform="translate(0 130)"><rect x="-50" y="-22" width="100" height="44" rx="22" fill="#1a1a30" stroke="#8a8ac0" stroke-width="1.2"/><text y="5" text-anchor="middle" class="mono" fill="#8a8ac0">idle</text></g><g transform="translate(180 40)"><rect x="-50" y="-22" width="100" height="44" rx="22" fill="#1a1a30" stroke="#4cd07d" stroke-width="1.2"/><text y="5" text-anchor="middle" class="mono" fill="#4cd07d">flying</text></g><g transform="translate(360 40)"><rect x="-50" y="-22" width="100" height="44" rx="22" fill="#1a1a30" stroke="#4cd07d" stroke-width="1.2"/><text y="5" text-anchor="middle" class="mono" fill="#4cd07d">settled</text></g><g transform="translate(180 220)"><rect x="-50" y="-22" width="100" height="44" rx="22" fill="#1a1a30" stroke="#ff8a3a" stroke-width="1.2"/><text y="5" text-anchor="middle" class="mono" fill="#ff8a3a">streaming</text></g><g transform="translate(540 130)"><rect x="-50" y="-22" width="100" height="44" rx="22" fill="#1a1a30" stroke="#ff7a8c" stroke-width="1.2"/><text y="5" text-anchor="middle" class="mono" fill="#ff7a8c">leaving</text></g><path stroke="#8aa0ff" stroke-width="1.2" marker-end="url(#arr)" d="M48 115L128 55"/><text x="60" y="78" class="mono subtle" font-size="11">_spawnDiscrete</text><path stroke="#8aa0ff" stroke-width="1.2" marker-end="url(#arr)" d="M230 40L310 40"/><text x="270" y="32" text-anchor="middle" class="mono subtle" font-size="11">arrive</text><path stroke="#5a6a90" stroke-width=".8" marker-end="url(#arrSoft)" stroke-dasharray="3 3" d="M230 48L492 120"/><text x="350" y="100" class="mono subtle" font-size="11" opacity=".7">arrive (draining)</text><path stroke="#ff7a8c" stroke-width="1.2" marker-end="url(#arr)" d="M410 48L492 120"/><text x="460" y="78" text-anchor="middle" class="mono" font-size="11" fill="#ff7a8c">_beginDrain</text><path stroke="#8aa0ff" stroke-width="1.2" marker-end="url(#arr)" d="M48 145L128 210"/><text x="60" y="195" class="mono subtle" font-size="11">_spawnContinuous</text><path stroke="#5a6a90" stroke-width=".8" marker-end="url(#arrSoft)" stroke-dasharray="3 3" d="M230 215L492 145"/><text x="360" y="200" class="mono subtle" font-size="11" opacity=".7">_exitContinuous</text><path d="M130 235Q0 280-10 175" fill="none" stroke="#8aa0ff" stroke-width="1.2" marker-end="url(#arr)"/><text x="-30" y="270" class="mono subtle" font-size="11">past bottom</text><path d="M540 155q-80 165-490 20" fill="none" stroke="#8aa0ff" stroke-width="1.2" marker-end="url(#arr)"/><text x="290" y="305" text-anchor="middle" class="mono subtle" font-size="11">faded past bottom</text></g></g><g transform="translate(840 1100)"><rect class="panel" width="320" height="420" rx="12"/><text x="20" y="34" class="panel-title">5 · Tuning knobs</text><g font-size="12"><text font-weight="600" fill="#c0c8ff" transform="translate(20 70)">Grid</text><text y="20" class="mono" transform="translate(20 70)"><tspan fill="#b9c1ff">GRID_W</tspan> <tspan fill="#8a8ac0">= 5</tspan></text><text y="38" class="mono" transform="translate(20 70)"><tspan fill="#b9c1ff">GRID_H</tspan> <tspan fill="#8a8ac0">= 20</tspan></text><text y="56" class="mono" transform="translate(20 70)"><tspan fill="#b9c1ff">SLOT_COUNT</tspan> <tspan fill="#8a8ac0">= 100 (must equal base-100)</tspan></text><text y="74" class="mono" transform="translate(20 70)"><tspan fill="#b9c1ff">COLUMN_COUNT</tspan> <tspan fill="#8a8ac0">= 5</tspan></text><text y="106" font-weight="600" fill="#c0c8ff" transform="translate(20 70)">Mode hysteresis</text><text y="126" class="mono" transform="translate(20 70)"><tspan fill="#b9c1ff">RATE_TO_CONTINUOUS</tspan> <tspan fill="#8a8ac0">= 30</tspan></text><text y="144" class="mono" transform="translate(20 70)"><tspan fill="#b9c1ff">RATE_TO_DISCRETE</tspan> <tspan fill="#8a8ac0">= 18</tspan></text><text y="160" class="subtle" font-size="11" transform="translate(20 70)">per-column rate, in items/sec</text><text y="192" font-weight="600" fill="#c0c8ff" transform="translate(20 70)">Discrete timing</text><text y="212" class="mono" transform="translate(20 70)"><tspan fill="#b9c1ff">SPAWN_INTERVAL</tspan> <tspan fill="#8a8ac0">= 0.025s</tspan></text><text y="230" class="mono" transform="translate(20 70)"><tspan fill="#b9c1ff">FLIGHT_TIME</tspan> <tspan fill="#8a8ac0">= 1.4s</tspan></text><text y="248" class="mono" transform="translate(20 70)"><tspan fill="#b9c1ff">SNAP_BACKLOG</tspan> <tspan fill="#8a8ac0">= 400 items</tspan></text><text y="280" font-weight="600" fill="#c0c8ff" transform="translate(20 70)">Continuous timing</text><text y="300" class="mono" transform="translate(20 70)"><tspan fill="#b9c1ff">CONTINUOUS_FALL_SPEED</tspan> <tspan fill="#8a8ac0">= 8.5</tspan></text><text y="318" class="mono" transform="translate(20 70)"><tspan fill="#b9c1ff">STREAM_MAX_SPEED</tspan> <tspan fill="#8a8ac0">= 38</tspan></text><text y="350" font-weight="600" fill="#c0c8ff" transform="translate(20 70)">Pool</text><text y="370" class="mono" transform="translate(20 70)"><tspan fill="#b9c1ff">POOL_SIZE</tspan> <tspan fill="#8a8ac0">= 320 per column</tspan></text></g></g><text x="600" y="1580" text-anchor="middle" class="subtle" font-size="11">All names match identifiers in src/display.js — use them verbatim when prompting.</text></svg>